<?xml version="1.0" standalone="no"?><!DOCTYPE svg PUBLIC "-//W3C//DTD SVG 1.1//EN" "http://www.w3.org/Graphics/SVG/1.1/DTD/svg11.dtd"><svg t="1729148106317" class="icon" viewBox="0 0 1024 1024" version="1.1" xmlns="http://www.w3.org/2000/svg" p-id="6776" xmlns:xlink="http://www.w3.org/1999/xlink" width="200" height="200"><path d="M853.36448 563.498667l-149.333333-149.333334L542.19648 576l170.666667 170.666667H853.36448v-183.168z m0-60.330667V277.333333H170.697813v439.168l240.917334-240.917333a21.333333 21.333333 0 0 1 30.165333 0L512.031147 545.834667l176.917333-176.917334a21.333333 21.333333 0 0 1 30.165333 0L853.36448 503.168zM652.53248 746.666667L426.697813 520.832 200.863147 746.666667h451.669333zM1024.031147 789.333333a128 128 0 0 1-223.402667 85.333334H223.433813A128 128 0 1 1 42.697813 693.930667V330.069333A128 128 0 1 1 223.433813 149.333333h577.194667A128 128 0 1 1 981.36448 330.069333v363.861334A127.744 127.744 0 0 1 1024.031147 789.333333z m-76.8-68.266666a21.333333 21.333333 0 0 1-8.533334-17.066667V320a21.333333 21.333333 0 0 1 8.533334-17.066667 85.333333 85.333333 0 1 0-119.466667-119.466666 21.333333 21.333333 0 0 1-17.066667 8.533333H213.36448a21.333333 21.333333 0 0 1-17.066667-8.533333 85.333333 85.333333 0 1 0-119.466666 119.466666 21.333333 21.333333 0 0 1 8.533333 17.066667v384a21.333333 21.333333 0 0 1-8.533333 17.066667 85.333333 85.333333 0 1 0 119.466666 119.466666 21.333333 21.333333 0 0 1 17.066667-8.533333h597.333333a21.333333 21.333333 0 0 1 17.066667 8.533333 85.333333 85.333333 0 1 0 119.466667-119.466666zM149.36448 234.666667h725.333333a21.333333 21.333333 0 0 1 21.333334 21.333333v512a21.333333 21.333333 0 0 1-21.333334 21.333333H149.36448a21.333333 21.333333 0 0 1-21.333333-21.333333V256a21.333333 21.333333 0 0 1 21.333333-21.333333z m138.666667 234.666666a74.666667 74.666667 0 1 1 0-149.333333 74.666667 74.666667 0 0 1 0 149.333333z m0-42.666666a32 32 0 1 0 0-64 32 32 0 0 0 0 64z" fill="#1296db" p-id="6777"></path></svg>