<?xml version="1.0" standalone="no"?><!DOCTYPE svg PUBLIC "-//W3C//DTD SVG 1.1//EN" "http://www.w3.org/Graphics/SVG/1.1/DTD/svg11.dtd"><svg t="1728920517145" class="icon" viewBox="0 0 1024 1024" version="1.1" xmlns="http://www.w3.org/2000/svg" p-id="5154" xmlns:xlink="http://www.w3.org/1999/xlink" width="200" height="200"><path d="M192 928c-53.02 0-96-42.98-96-96V192c0-53.02 42.98-96 96-96h640c53.02 0 96 42.98 96 96v640c0 53.02-42.98 96-96 96z m138.666-533.334H160V832c0 17.496 14.042 31.713 31.47 31.996l0.53 0.004h138.666V394.666z m533.334 0H394.666V864H832c17.496 0 31.713-14.042 31.996-31.47L864 832V394.666zM832 160H192c-17.673 0-32 14.327-32 32v138.666h704V192c0-17.496-14.042-31.713-31.47-31.996L832 160z" p-id="5155"></path></svg>